<svg id="Layer_1" data-name="Layer 1" xmlns="http://www.w3.org/2000/svg" viewBox="0 0 43.93 45.5"><defs><style>.cls-1{fill:#fff;}</style></defs><path class="cls-1" d="M41.07,45.5a4.51,4.51,0,0,1-1.87-1.36q-5-5.18-9.94-10.34l-.34-.37A18.21,18.21,0,0,1,13,35.93a17.79,17.79,0,0,1-9.94-7.41A18.35,18.35,0,0,1,30.15,4.31a18.16,18.16,0,0,1,5.48,7.79,18,18,0,0,1,.83,9.44,18.32,18.32,0,0,1-4,8.64l.63.66,10,10.43a2.38,2.38,0,0,1,.15,3.48A6.72,6.72,0,0,1,42,45.5ZM18.39,4.81A13.57,13.57,0,1,0,31.94,18.38,13.58,13.58,0,0,0,18.39,4.81Z"/></svg>