<svg xmlns="http://www.w3.org/2000/svg" width="216.357" height="67.372" viewBox="0 0 216.357 67.372"><g transform="translate(0 0)"><path d="M0,0A3.683,3.683,0,0,0,1.235-2.808,3.287,3.287,0,0,0,.27-5.189a3.34,3.34,0,0,0-2.494-.988A4.029,4.029,0,0,0-5.077-5.009,3.8,3.8,0,0,0-6.312-2.134,3.152,3.152,0,0,0-5.346.18a3.378,3.378,0,0,0,2.493.966A4.071,4.071,0,0,0,0,0" transform="translate(67.051 50.499)" fill="#0032ff"/><path d="M0,0A14.111,14.111,0,0,0,2.92-3.1l-.539-.449A17.689,17.689,0,0,1,.584-2a2.353,2.353,0,0,1-1.348.516.814.814,0,0,1-.584-.269.974.974,0,0,1-.269-.719,6.984,6.984,0,0,1,.09-1.011q.088-.606.269-1.46l3.1-14.96h4.9l.224-.944h-4.9L3.325-27H2.651l-4.313,4.357a6.92,6.92,0,0,1-1.8,1.393,6.1,6.1,0,0,1-2.2.629l-1.617.18-.135.539h3.729l-3.1,14.2q-.225,1.214-.4,2.269a11.69,11.69,0,0,0-.18,1.954A2.631,2.631,0,0,0-6.447.7a3.568,3.568,0,0,0,2.314.742A6.433,6.433,0,0,0,0,0M11.5.764q.4-2.427.831-4.65T13.343-8.85L14.691-15.1q3.593-3.594,5.8-3.594,1.482,0,1.483,1.572a7.506,7.506,0,0,1-.247,1.73q-.248,1.011-.562,2.224L19.138-5.256q-.315,1.077-.539,2.089a8.983,8.983,0,0,0-.224,1.954A2.439,2.439,0,0,0,19.183.741a3.408,3.408,0,0,0,2.291.7A6.906,6.906,0,0,0,25.653.09a11.572,11.572,0,0,0,2.92-3.01l-.405-.4q-2.112,1.979-3.279,1.977-.808,0-.809-.943a3.606,3.606,0,0,1,.18-.966q.178-.606.359-1.46l2.247-9.165q.269-1.078.449-2.089a11.235,11.235,0,0,0,.179-1.954,3.594,3.594,0,0,0-.921-2.718,3.282,3.282,0,0,0-2.358-.876,9.137,9.137,0,0,0-4.695,1.55,23.994,23.994,0,0,0-4.784,3.886l3.055-14.332-.315-.314L8.9-28.213l-.09.449.719.225a2.031,2.031,0,0,1,1.483,2.56q-.315,1.708-.584,3.078t-.629,3.077L5.706.764l.269.269ZM42.949.427a12.356,12.356,0,0,0,3.257-2.583A15.686,15.686,0,0,0,48.52-5.481L48.07-5.8A11.231,11.231,0,0,1,45.33-3.3a6.361,6.361,0,0,1-3.549,1.056,4.6,4.6,0,0,1-3.594-1.438,6.766,6.766,0,0,1-1.348-4.537A28.689,28.689,0,0,0,43.8-10.31a15.1,15.1,0,0,0,4.605-3.078,5.036,5.036,0,0,0,1.64-3.459,4.234,4.234,0,0,0-1.505-3.392,6.51,6.51,0,0,0-4.335-1.28,11.189,11.189,0,0,0-5.077,1.168,13.256,13.256,0,0,0-4.111,3.212,15.3,15.3,0,0,0-2.762,4.65,15.3,15.3,0,0,0-.989,5.481A8.658,8.658,0,0,0,33.38-.764a7.251,7.251,0,0,0,5.481,2.2A8.358,8.358,0,0,0,42.949.427m2.426-20.1a2.835,2.835,0,0,1,.584,1.976,7.056,7.056,0,0,1-2.089,4.987q-2.089,2.2-7.031,3.549a15.682,15.682,0,0,1,.831-4.245,15.056,15.056,0,0,1,1.752-3.549,10.287,10.287,0,0,1,2.246-2.449,3.776,3.776,0,0,1,2.224-.9,1.935,1.935,0,0,1,1.483.629" transform="translate(7.413 50.297)"/><path d="M0,0A13.671,13.671,0,0,0,7.731-2.246a15.234,15.234,0,0,0,5.375-6.627,25.629,25.629,0,0,0,1.988-10.639q0-9.425-4.381-14.469T-1.1-39.024a12.535,12.535,0,0,0-6.185,1.472,11.141,11.141,0,0,0-2.283,1.473v-9.94q0-6.627-6.627-6.627h-9.572v1.1l4.418,1.1v49.7h.736q5.375,0,8.173-2.946a7.63,7.63,0,0,0,1.768-2.945A16.392,16.392,0,0,0-8.247-3.313,11.194,11.194,0,0,0,0,0M-2.945-2.577q-2.8,0-5.007-2.945a12,12,0,0,1-1.62-2.946v-25.4a16.75,16.75,0,0,1,1.62-1.473,6.575,6.575,0,0,1,3.9-1.473q3.165,0,4.9,3.682t1.73,13.622q0,9.5-1.583,13.217T-2.945-2.577M16.566-1.1H37.183V-2.209l-4.418-1.1V-46.019q0-6.627-6.627-6.627H16.566v1.1l4.418,1.1V-3.313l-4.418,1.1ZM56.695,0q9.129,0,14.321-5.191t5.191-14.321q0-9.129-5.191-14.321T56.695-39.024q-9.13,0-14.321,5.191T37.183-19.512q0,9.13,5.191,14.321T56.695,0m0-1.473q-2.946,0-4.97-4.123T49.7-19.512q0-9.792,2.025-13.916t4.97-4.124q2.945,0,4.97,4.124T63.69-19.512q0,9.793-2.025,13.916t-4.97,4.123m38.287,16.2q9.718,0,14.616-3.681a11.445,11.445,0,0,0,4.9-9.572q0-5.743-3.129-8.947t-8.652-3.2H88.723a11.084,11.084,0,0,1-4.6-.663,2.075,2.075,0,0,1-1.288-1.915,1.424,1.424,0,0,1,.368-.994,4.93,4.93,0,0,1,1.1-.846l1.473-.737A23.932,23.932,0,0,0,95.35-13.99q7.953,0,12.076-3.35a10.788,10.788,0,0,0,4.123-8.8,10.747,10.747,0,0,0-3.682-8.468,5.96,5.96,0,0,1,1.178-1.84,4.9,4.9,0,0,1,3.608-1.841v8.836l.737.22a13.036,13.036,0,0,0,1.84.148,3.669,3.669,0,0,0,2.909-1.326,5.117,5.117,0,0,0,1.141-3.46,6.2,6.2,0,0,0-1.693-4.529,5.646,5.646,0,0,0-4.2-1.73,7.4,7.4,0,0,0-5.449,2.209,7.772,7.772,0,0,0-1.546,2.209,14.624,14.624,0,0,0-4.676-1.878,27.249,27.249,0,0,0-6.369-.7q-7.951,0-12.075,3.35a10.786,10.786,0,0,0-4.124,8.8,11.835,11.835,0,0,0,1.215,5.559,10.6,10.6,0,0,0,3.939,4.013,14.83,14.83,0,0,0-3.534,1.841Q77.309-12,77.31-8.468a7.052,7.052,0,0,0,2.946,5.817Q83.2-.368,88.723-.368h13.99q8.836,0,8.836,4.786,0,3.754-4.16,6.3T94.246,13.254a30.245,30.245,0,0,1-6.406-.737q-1.915-.441-2.8-.736V1.473l-.81-.148A18.115,18.115,0,0,0,82.1,1.1a5.417,5.417,0,0,0-4.012,1.51,5.418,5.418,0,0,0-1.51,4.013,5.537,5.537,0,0,0,1.8,3.9,13.442,13.442,0,0,0,5.927,3.019,39.875,39.875,0,0,0,10.677,1.178m.368-30.189a4.2,4.2,0,0,1-3.792-2.356q-1.363-2.355-1.362-8.32t1.362-8.32a4.2,4.2,0,0,1,3.792-2.357,4.2,4.2,0,0,1,3.792,2.357q1.362,2.356,1.362,8.32t-1.362,8.32a4.2,4.2,0,0,1-3.792,2.356" transform="translate(97.077 52.646)"/><path d="M0,0H216.356V-67.372H0Z" transform="translate(0 67.372)" fill="none"/></g></svg>